<svg width="251" height="48" viewBox="0 0 251 48" fill="none" xmlns="http://www.w3.org/2000/svg">
<path d="M20.5 43.5009C31.5461 43.5009 40.5008 34.5462 40.5008 23.5001C40.5008 12.4539 31.5461 3.49927 20.5 3.49927C9.45387 3.49927 0.499207 12.4539 0.499207 23.5001C0.499207 34.5462 9.45387 43.5009 20.5 43.5009Z" fill="#040403"/>
<path d="M39.2396 23.3399C39.2396 33.6894 30.8497 42.0795 20.5 42.0795C10.1503 42.0795 1.76031 33.6894 1.76031 23.3399" fill="#E0E4E8"/>
<path d="M1.76031 23.6602C1.76031 13.3106 10.1503 4.92053 20.5 4.92053C30.8496 4.92053 39.2396 13.3106 39.2396 23.6602" fill="#E64C3C"/>
<path d="M39.8789 19.2559H1.12109V27.8242H39.8789V19.2559Z" fill="#040404"/>
<path d="M20.5 33.4114C25.9739 33.4114 30.4114 28.9739 30.4114 23.5C30.4114 18.0261 25.9739 13.5886 20.5 13.5886C15.0261 13.5886 10.5886 18.0261 10.5886 23.5C10.5886 28.9739 15.0261 33.4114 20.5 33.4114Z" fill="black"/>
<path d="M20.5 29.5078C23.818 29.5078 26.5078 26.818 26.5078 23.5C26.5078 20.182 23.818 17.4922 20.5 17.4922C17.182 17.4922 14.4922 20.182 14.4922 23.5C14.4922 26.818 17.182 29.5078 20.5 29.5078Z" fill="#E0E4E8"/>
<path d="M20.5 27.586C22.7566 27.586 24.586 25.7566 24.586 23.5C24.586 21.2434 22.7566 19.414 20.5 19.414C18.2434 19.414 16.414 21.2434 16.414 23.5C16.414 25.7566 18.2434 27.586 20.5 27.586Z" fill="black"/>
<path d="M20.5 26.3849C22.0933 26.3849 23.3849 25.0933 23.3849 23.5C23.3849 21.9067 22.0933 20.6151 20.5 20.6151C18.9067 20.6151 17.6151 21.9067 17.6151 23.5C17.6151 25.0933 18.9067 26.3849 20.5 26.3849Z" fill="#E0E4E8"/>
<path d="M60.7915 27.73V38H54.7856V8.85156H66.1567C68.3455 8.85156 70.2674 9.25195 71.9224 10.0527C73.5907 10.8535 74.8719 11.9946 75.7661 13.4761C76.6603 14.9442 77.1074 16.6191 77.1074 18.501C77.1074 21.3571 76.1265 23.6126 74.1646 25.2676C72.216 26.9092 69.5133 27.73 66.0566 27.73H60.7915ZM60.7915 22.8652H66.1567C67.745 22.8652 68.9528 22.4915 69.7803 21.7441C70.6211 20.9967 71.0415 19.929 71.0415 18.541C71.0415 17.113 70.6211 15.9585 69.7803 15.0776C68.9395 14.1968 67.7783 13.743 66.2969 13.7163H60.7915V22.8652ZM79.6899 26.9692C79.6899 24.8205 80.1037 22.9053 80.9312 21.2236C81.7586 19.542 82.9465 18.2407 84.4946 17.3198C86.0562 16.3989 87.8646 15.9385 89.9199 15.9385C92.8428 15.9385 95.2251 16.8327 97.0669 18.6211C98.922 20.4095 99.9564 22.8385 100.17 25.9082L100.21 27.3896C100.21 30.7129 99.2824 33.3822 97.4272 35.3975C95.5721 37.3994 93.083 38.4004 89.96 38.4004C86.8369 38.4004 84.3411 37.3994 82.4727 35.3975C80.6175 33.3955 79.6899 30.6729 79.6899 27.2295V26.9692ZM85.4756 27.3896C85.4756 29.445 85.8626 31.0199 86.6367 32.1143C87.4108 33.1953 88.5186 33.7358 89.96 33.7358C91.3613 33.7358 92.4557 33.202 93.2432 32.1343C94.0306 31.0532 94.4243 29.3315 94.4243 26.9692C94.4243 24.9539 94.0306 23.3924 93.2432 22.2847C92.4557 21.1769 91.348 20.623 89.9199 20.623C88.5052 20.623 87.4108 21.1769 86.6367 22.2847C85.8626 23.3791 85.4756 25.0807 85.4756 27.3896ZM111.641 29.3115L109.559 31.3936V38H103.773V7.25H109.559V24.2866L110.68 22.8452L116.226 16.3389H123.172L115.345 25.3677L123.853 38H117.207L111.641 29.3115ZM135.244 38.4004C132.068 38.4004 129.479 37.4261 127.477 35.4775C125.488 33.529 124.494 30.9331 124.494 27.6899V27.1294C124.494 24.9539 124.914 23.012 125.755 21.3037C126.596 19.582 127.784 18.2607 129.318 17.3398C130.867 16.4056 132.628 15.9385 134.604 15.9385C137.566 15.9385 139.895 16.8727 141.59 18.7412C143.299 20.6097 144.153 23.259 144.153 26.689V29.0513H130.359C130.546 30.466 131.107 31.6004 132.041 32.4546C132.989 33.3088 134.183 33.7358 135.625 33.7358C137.853 33.7358 139.595 32.9284 140.85 31.3135L143.692 34.4966C142.825 35.7244 141.65 36.6854 140.169 37.3794C138.688 38.0601 137.046 38.4004 135.244 38.4004ZM134.583 20.623C133.436 20.623 132.501 21.0101 131.781 21.7842C131.073 22.5583 130.62 23.666 130.419 25.1074H138.467V24.647C138.441 23.3657 138.094 22.3781 137.426 21.6841C136.759 20.9767 135.811 20.623 134.583 20.623ZM158.627 27.3296H153.842V38H147.836V8.85156H158.667C162.11 8.85156 164.766 9.61898 166.635 11.1538C168.503 12.6886 169.438 14.8574 169.438 17.6602C169.438 19.6488 169.004 21.3104 168.136 22.645C167.282 23.9663 165.981 25.0207 164.232 25.8081L170.539 37.7197V38H164.092L158.627 27.3296ZM153.842 22.4648H158.687C160.195 22.4648 161.363 22.0845 162.19 21.3237C163.018 20.5496 163.432 19.4886 163.432 18.1406C163.432 16.766 163.038 15.6849 162.25 14.8975C161.476 14.11 160.282 13.7163 158.667 13.7163H153.842V22.4648ZM183.611 38.4004C180.435 38.4004 177.846 37.4261 175.844 35.4775C173.855 33.529 172.861 30.9331 172.861 27.6899V27.1294C172.861 24.9539 173.281 23.012 174.122 21.3037C174.963 19.582 176.151 18.2607 177.686 17.3398C179.234 16.4056 180.995 15.9385 182.971 15.9385C185.934 15.9385 188.263 16.8727 189.958 18.7412C191.666 20.6097 192.52 23.259 192.52 26.689V29.0513H178.727C178.913 30.466 179.474 31.6004 180.408 32.4546C181.356 33.3088 182.55 33.7358 183.992 33.7358C186.221 33.7358 187.962 32.9284 189.217 31.3135L192.06 34.4966C191.192 35.7244 190.018 36.6854 188.536 37.3794C187.055 38.0601 185.413 38.4004 183.611 38.4004ZM182.951 20.623C181.803 20.623 180.869 21.0101 180.148 21.7842C179.441 22.5583 178.987 23.666 178.787 25.1074H186.834V24.647C186.808 23.3657 186.461 22.3781 185.793 21.6841C185.126 20.9767 184.179 20.623 182.951 20.623ZM208.375 38C208.109 37.4795 207.915 36.8322 207.795 36.0581C206.394 37.6196 204.572 38.4004 202.33 38.4004C200.208 38.4004 198.446 37.7865 197.044 36.5586C195.656 35.3307 194.962 33.7826 194.962 31.9141C194.962 29.6185 195.81 27.8568 197.505 26.6289C199.213 25.401 201.676 24.7804 204.892 24.7671H207.555V23.5259C207.555 22.5249 207.294 21.7241 206.774 21.1235C206.267 20.5229 205.459 20.2227 204.352 20.2227C203.377 20.2227 202.61 20.4562 202.049 20.9233C201.502 21.3905 201.229 22.0311 201.229 22.8452H195.443C195.443 21.5907 195.83 20.4295 196.604 19.3618C197.378 18.2941 198.472 17.46 199.887 16.8594C201.302 16.2454 202.89 15.9385 204.652 15.9385C207.321 15.9385 209.437 16.6125 210.998 17.9604C212.573 19.2951 213.36 21.1769 213.36 23.606V32.9951C213.374 35.0505 213.661 36.6053 214.221 37.6597V38H208.375ZM203.591 33.9761C204.445 33.9761 205.232 33.7892 205.953 33.4155C206.674 33.0285 207.208 32.5146 207.555 31.874V28.1504H205.393C202.496 28.1504 200.955 29.1514 200.768 31.1533L200.748 31.4937C200.748 32.2144 201.002 32.8083 201.509 33.2754C202.016 33.7425 202.71 33.9761 203.591 33.9761ZM226.813 33.7358C227.881 33.7358 228.749 33.4422 229.416 32.855C230.083 32.2677 230.43 31.487 230.457 30.5127H235.882C235.869 31.9808 235.469 33.3288 234.681 34.5566C233.894 35.7712 232.813 36.7188 231.438 37.3994C230.077 38.0667 228.569 38.4004 226.914 38.4004C223.817 38.4004 221.375 37.4194 219.586 35.4575C217.798 33.4823 216.904 30.7596 216.904 27.2896V26.9092C216.904 23.5726 217.791 20.91 219.566 18.9214C221.341 16.9328 223.777 15.9385 226.874 15.9385C229.583 15.9385 231.752 16.7126 233.38 18.2607C235.021 19.7956 235.856 21.8442 235.882 24.4067H230.457C230.43 23.2856 230.083 22.3781 229.416 21.6841C228.749 20.9767 227.868 20.623 226.773 20.623C225.425 20.623 224.404 21.1169 223.71 22.1045C223.03 23.0788 222.689 24.667 222.689 26.8691V27.4697C222.689 29.6986 223.03 31.3001 223.71 32.2744C224.391 33.2487 225.425 33.7358 226.813 33.7358ZM246.112 11.0137V16.3389H249.816V20.583H246.112V31.3936C246.112 32.1943 246.266 32.7682 246.573 33.1152C246.88 33.4622 247.467 33.6357 248.334 33.6357C248.975 33.6357 249.542 33.589 250.036 33.4956V37.8799C248.902 38.2269 247.734 38.4004 246.533 38.4004C242.475 38.4004 240.407 36.3517 240.327 32.2544V20.583H237.164V16.3389H240.327V11.0137H246.112Z" fill="#29435B"/>
</svg>
